<svg width="349" height="184" viewBox="0 0 349 184" fill="none" xmlns="http://www.w3.org/2000/svg">
<path d="M170.654 0.0543665C171.397 -2.44255e-06 172.166 0 172.935 0L174.5 0C175.782 0 177.089 0 178.346 0.0543665C272.712 1.81942 349 83.6488 349 184H346.974C346.974 84.7893 271.61 3.91068 178.346 2.14564L177.485 2.13967L176.636 2.12973C176.17 2.12376 175.704 2.11845 175.244 2.11845H173.756C173.323 2.11845 172.885 2.1231 172.447 2.13039L171.52 2.14962L170.654 2.17283C77.3897 3.91069 2.0259 84.7893 2.0259 184H-3.21884e-06C0.0137684 83.6612 76.2964 1.81926 170.654 0.0543665Z" fill="url(#paint0_linear_94_574)"/>
<path d="M342.076 184H340.05C340.05 88.8359 267.789 11.2162 178.346 9.45116C178.346 9.49058 176.957 9.46073 176.029 9.44076L175.957 9.43923L175.912 9.43723L175.244 9.42397H173.756L173.085 9.43723L173.025 9.43923L172.922 9.44143C171.993 9.46138 170.654 9.49015 170.654 9.45116C81.2111 11.2162 8.94754 88.8359 8.94754 184H6.9216C6.9216 87.6955 80.1067 9.15279 170.654 7.38708H170.987L171.911 7.35392L171.966 7.35177C172.563 7.32861 173.159 7.30552 173.756 7.30552H174.5C175.782 7.30552 177.089 7.33271 178.346 7.38708C223.605 8.28352 264.558 28.3535 294.176 60.2378C323.768 92.1492 342.076 135.848 342.076 184Z" fill="url(#paint1_linear_94_574)"/>
<path d="M178.346 14.7198C265.097 16.4855 335.152 91.7149 335.152 184H333.153C333.153 92.8825 263.967 18.5496 178.346 16.8111H176.781C176.038 16.7839 175.269 16.7839 174.5 16.7839H173.756C173.243 16.7839 172.729 16.7839 172.216 16.8111C171.678 16.8111 171.167 16.8111 170.654 16.8654C85.0385 18.5766 15.8603 92.8677 15.8466 184H13.8457C13.8457 137.857 31.3601 95.979 59.7226 65.4255C88.0827 34.8448 127.291 15.6162 170.654 14.7198H170.962L172.755 14.6561L173.208 14.6442L173.756 14.6382H174.5C175.782 14.6382 177.089 14.6654 178.346 14.7198Z" fill="url(#paint2_linear_94_574)"/>
<path d="M328.23 184C328.23 95.7615 261.275 23.8182 178.346 22.0532H177.628L177.546 22.051C176.522 22.0245 175.525 21.9988 174.5 21.9988H173.756C172.96 21.9988 172.166 22.026 171.372 22.0532H170.654C129.189 22.9489 91.7238 41.3626 64.6183 70.5854C37.5154 99.8353 20.7699 139.894 20.7699 184H22.7707C22.7707 96.902 88.8263 25.8823 170.654 24.1709C170.913 24.1572 171.173 24.1504 171.435 24.1435C171.691 24.1368 171.95 24.13 172.216 24.1166C172.564 24.0987 172.912 24.0927 173.26 24.0907L173.756 24.0901H174.5C175.269 24.0901 176.038 24.0901 176.781 24.1166C177.32 24.1438 177.833 24.1438 178.346 24.1438C260.174 25.8823 326.229 96.9291 326.229 184H328.23Z" fill="url(#paint3_linear_94_574)"/>
<path fill-rule="evenodd" clip-rule="evenodd" d="M320.843 171.371L318.767 170.611C313.28 103.909 266.507 48.1795 204.681 34.6001L204.681 62.4921C205.99 62.8449 207.297 63.2255 208.605 63.6598L208.605 40.8739L209.862 41.1995C264.148 55.9199 304.586 103.339 312.869 162.001L312.947 162.491L310.819 161.839C302.56 104.697 263.326 58.4455 210.605 43.617L210.605 64.2843C211.938 64.7193 213.245 65.1808 214.555 65.6967L214.555 50.2164L215.862 50.6506C260.146 65.7782 294.02 105.022 304.252 153.039L304.355 153.528L302.177 153.012C292.072 106.407 259.377 68.3038 216.553 53.1497L216.553 58.663C253.735 72.4048 282.944 104.235 294.792 143.995L294.944 144.511L292.713 144.104C281.046 105.485 252.633 74.496 216.553 60.9167L216.553 66.4572C246.478 78.2171 271.225 102.551 284.226 134.87L284.432 135.386L282.176 135.169C269.429 103.909 245.479 80.3084 216.553 68.6844L216.553 74.3873C239.684 84.1647 259.505 102.035 272.199 125.663L272.482 126.179H270.173C257.84 103.502 238.785 86.256 216.553 76.6689L216.553 85.4139H214.555L214.555 75.8268C213.479 75.3586 212.405 74.9453 211.318 74.5269L211.314 74.5252L211.311 74.5241C211.077 74.4339 210.841 74.3434 210.605 74.252L210.605 85.4139H208.605L208.605 73.5731C207.322 73.1381 206.015 72.731 204.681 72.3504L204.681 85.4139H202.655L202.655 71.753C194.784 69.5808 186.628 68.331 178.346 68.087C178.346 68.1221 178.246 68.1321 178.109 68.1307C177.964 68.1294 177.776 68.1145 177.628 68.1028L177.613 68.1016L177.397 68.087C177.089 68.087 176.756 68.087 176.423 68.0598H172.577L172.021 68.0644C171.883 68.0684 171.745 68.075 171.603 68.087C171.566 68.087 171.487 68.0934 171.389 68.1013C171.102 68.1245 170.654 68.1606 170.654 68.087C162.37 68.331 154.216 69.5808 146.343 71.753L146.343 85.4139H144.317L144.317 72.3504C142.985 72.731 141.677 73.1381 140.395 73.5731L140.395 85.4139H138.394L138.394 74.252C138.175 74.3369 137.956 74.4211 137.738 74.505L137.72 74.5118L137.718 74.5126L137.717 74.513L137.716 74.5132C136.615 74.9363 135.53 75.3535 134.445 75.8268L134.445 85.4139H132.444L132.444 76.6689C110.212 86.256 91.1603 103.502 78.8246 126.179H76.5182L76.7987 125.663C89.4925 102.035 109.316 84.1647 132.444 74.3873L132.444 68.6844C103.518 80.3084 79.5684 103.909 66.8245 135.169L64.5683 135.386L64.7736 134.87C77.7754 102.551 102.519 78.2171 132.444 66.4572L132.444 60.9167C96.3665 74.496 67.9539 105.485 56.2843 144.104L54.0556 144.511L54.2084 143.995C66.0558 104.235 95.2621 72.4048 132.444 58.663L132.444 53.1497C89.6202 68.3038 56.9254 106.407 46.8235 153.012L44.6423 153.528L44.745 153.039C54.9772 105.022 88.8514 65.7782 133.138 50.6506L134.445 50.2164L134.445 65.6967C135.753 65.1808 137.06 64.7193 138.394 64.2843L138.394 43.617C85.6711 58.4455 46.4378 104.697 38.1815 161.839L36.0529 162.491L36.1306 162.001C44.412 103.339 84.8522 55.9199 139.138 41.1995L140.395 40.8739L140.395 63.6598C141.154 63.4071 141.913 63.1731 142.672 62.9516C143.22 62.7925 143.768 62.64 144.317 62.4921L144.317 34.6001C82.4932 48.1795 35.7199 103.909 30.2332 170.611L28.1547 171.371L28.2073 170.909C33.5913 102.606 81.6969 45.5995 145.138 32.2377L146.343 31.993L146.343 61.9763C154.524 59.9122 162.961 58.7711 171.603 58.6358C171.936 58.6086 172.244 58.6086 172.577 58.6086C172.96 58.5814 173.37 58.5814 173.756 58.5814L174.5 58.5814L175.386 58.5841C175.732 58.5874 176.078 58.594 176.423 58.6086C176.756 58.6358 177.089 58.6358 177.397 58.6358C186.039 58.7711 194.476 59.9122 202.655 61.9763L202.655 31.993L203.862 32.2377C267.301 45.5995 315.409 102.606 320.793 170.909L320.843 171.371ZM210.605 72.052C211.938 72.5135 213.245 73.0022 214.555 73.5459L214.555 67.9239C213.245 67.408 211.938 66.9458 210.605 66.5116L210.605 72.052ZM207.633 71.0342C207.959 71.1443 208.282 71.257 208.605 71.3731L208.605 65.8598C207.939 65.6383 207.272 65.4308 206.604 65.2338C205.963 65.0442 205.322 64.8652 204.681 64.6921L204.681 70.1239C205.404 70.3301 206.12 70.5449 206.829 70.7717L207.633 71.0342ZM136.123 67.2893C135.562 67.4922 135.004 67.7031 134.445 67.9239L134.445 73.5459C135.753 73.0022 137.06 72.5135 138.394 72.052L138.394 66.5116C137.631 66.7602 136.874 67.0181 136.123 67.2893ZM144.317 64.6921C143.01 65.0449 141.702 65.4255 140.395 65.8598L140.395 71.3731C141.677 70.9116 142.985 70.5038 144.317 70.1239L144.317 64.6921ZM202.655 64.1491C194.784 62.1387 186.655 60.9711 178.346 60.7543C178.346 60.7941 178.216 60.802 178.051 60.7967C177.912 60.7928 177.748 60.7797 177.615 60.7691L177.613 60.7689L177.397 60.7543H176.423L175.98 60.7397L175.529 60.7311L174.5 60.7271L173.756 60.7271C173.371 60.7271 172.96 60.7271 172.577 60.7543H171.603L171.387 60.7689C171.247 60.7801 171.069 60.794 170.924 60.7974C170.771 60.8007 170.654 60.7921 170.654 60.7543C162.345 60.9711 154.216 62.1387 146.343 64.1491L146.343 69.5808C154.524 67.3536 162.986 66.1044 171.603 65.9685C171.73 65.9579 171.853 65.9513 171.976 65.9473L172.351 65.9413H172.577C172.757 65.9287 172.942 65.9221 173.13 65.9181L173.756 65.9141H174.5L175.229 65.9155L175.642 65.9194C175.902 65.9234 176.163 65.9301 176.423 65.9413C176.756 65.9685 177.089 65.9685 177.397 65.9685C186.014 66.1044 194.476 67.3536 202.655 69.5808L202.655 64.1491Z" fill="url(#paint4_linear_94_574)"/>
<defs>
<linearGradient id="paint0_linear_94_574" x1="178.411" y1="142.656" x2="258.632" y2="97.8406" gradientUnits="userSpaceOnUse">
<stop stop-color="#DB9326"/>
<stop offset="0.04" stop-color="#E8B743"/>
<stop offset="0.08" stop-color="#F2D35A"/>
<stop offset="0.12" stop-color="#F9E76B"/>
<stop offset="0.16" stop-color="#FDF374"/>
<stop offset="0.2" stop-color="#FFF778"/>
<stop offset="0.28" stop-color="#E9C24A"/>
<stop offset="0.34" stop-color="#D99A26"/>
<stop offset="0.36" stop-color="#CA8E23"/>
<stop offset="0.4" stop-color="#B67D20"/>
<stop offset="0.43" stop-color="#AA741E"/>
<stop offset="0.47" stop-color="#A7711E"/>
<stop offset="0.51" stop-color="#AB7622"/>
<stop offset="0.56" stop-color="#B8852E"/>
<stop offset="0.61" stop-color="#CD9E42"/>
<stop offset="0.66" stop-color="#EAC05E"/>
<stop offset="0.68" stop-color="#F6CE69"/>
<stop offset="0.72" stop-color="#F3C862"/>
<stop offset="0.78" stop-color="#EABA4F"/>
<stop offset="0.85" stop-color="#DDA230"/>
<stop offset="0.87" stop-color="#D99A26"/>
<stop offset="1" stop-color="#F6CE69"/>
</linearGradient>
<linearGradient id="paint1_linear_94_574" x1="178.411" y1="142.656" x2="258.632" y2="97.8406" gradientUnits="userSpaceOnUse">
<stop stop-color="#DB9326"/>
<stop offset="0.04" stop-color="#E8B743"/>
<stop offset="0.08" stop-color="#F2D35A"/>
<stop offset="0.12" stop-color="#F9E76B"/>
<stop offset="0.16" stop-color="#FDF374"/>
<stop offset="0.2" stop-color="#FFF778"/>
<stop offset="0.28" stop-color="#E9C24A"/>
<stop offset="0.34" stop-color="#D99A26"/>
<stop offset="0.36" stop-color="#CA8E23"/>
<stop offset="0.4" stop-color="#B67D20"/>
<stop offset="0.43" stop-color="#AA741E"/>
<stop offset="0.47" stop-color="#A7711E"/>
<stop offset="0.51" stop-color="#AB7622"/>
<stop offset="0.56" stop-color="#B8852E"/>
<stop offset="0.61" stop-color="#CD9E42"/>
<stop offset="0.66" stop-color="#EAC05E"/>
<stop offset="0.68" stop-color="#F6CE69"/>
<stop offset="0.72" stop-color="#F3C862"/>
<stop offset="0.78" stop-color="#EABA4F"/>
<stop offset="0.85" stop-color="#DDA230"/>
<stop offset="0.87" stop-color="#D99A26"/>
<stop offset="1" stop-color="#F6CE69"/>
</linearGradient>
<linearGradient id="paint2_linear_94_574" x1="178.411" y1="142.656" x2="258.632" y2="97.8406" gradientUnits="userSpaceOnUse">
<stop stop-color="#DB9326"/>
<stop offset="0.04" stop-color="#E8B743"/>
<stop offset="0.08" stop-color="#F2D35A"/>
<stop offset="0.12" stop-color="#F9E76B"/>
<stop offset="0.16" stop-color="#FDF374"/>
<stop offset="0.2" stop-color="#FFF778"/>
<stop offset="0.28" stop-color="#E9C24A"/>
<stop offset="0.34" stop-color="#D99A26"/>
<stop offset="0.36" stop-color="#CA8E23"/>
<stop offset="0.4" stop-color="#B67D20"/>
<stop offset="0.43" stop-color="#AA741E"/>
<stop offset="0.47" stop-color="#A7711E"/>
<stop offset="0.51" stop-color="#AB7622"/>
<stop offset="0.56" stop-color="#B8852E"/>
<stop offset="0.61" stop-color="#CD9E42"/>
<stop offset="0.66" stop-color="#EAC05E"/>
<stop offset="0.68" stop-color="#F6CE69"/>
<stop offset="0.72" stop-color="#F3C862"/>
<stop offset="0.78" stop-color="#EABA4F"/>
<stop offset="0.85" stop-color="#DDA230"/>
<stop offset="0.87" stop-color="#D99A26"/>
<stop offset="1" stop-color="#F6CE69"/>
</linearGradient>
<linearGradient id="paint3_linear_94_574" x1="178.411" y1="142.656" x2="258.632" y2="97.8406" gradientUnits="userSpaceOnUse">
<stop stop-color="#DB9326"/>
<stop offset="0.04" stop-color="#E8B743"/>
<stop offset="0.08" stop-color="#F2D35A"/>
<stop offset="0.12" stop-color="#F9E76B"/>
<stop offset="0.16" stop-color="#FDF374"/>
<stop offset="0.2" stop-color="#FFF778"/>
<stop offset="0.28" stop-color="#E9C24A"/>
<stop offset="0.34" stop-color="#D99A26"/>
<stop offset="0.36" stop-color="#CA8E23"/>
<stop offset="0.4" stop-color="#B67D20"/>
<stop offset="0.43" stop-color="#AA741E"/>
<stop offset="0.47" stop-color="#A7711E"/>
<stop offset="0.51" stop-color="#AB7622"/>
<stop offset="0.56" stop-color="#B8852E"/>
<stop offset="0.61" stop-color="#CD9E42"/>
<stop offset="0.66" stop-color="#EAC05E"/>
<stop offset="0.68" stop-color="#F6CE69"/>
<stop offset="0.72" stop-color="#F3C862"/>
<stop offset="0.78" stop-color="#EABA4F"/>
<stop offset="0.85" stop-color="#DDA230"/>
<stop offset="0.87" stop-color="#D99A26"/>
<stop offset="1" stop-color="#F6CE69"/>
</linearGradient>
<linearGradient id="paint4_linear_94_574" x1="178.411" y1="142.656" x2="258.632" y2="97.8406" gradientUnits="userSpaceOnUse">
<stop stop-color="#DB9326"/>
<stop offset="0.04" stop-color="#E8B743"/>
<stop offset="0.08" stop-color="#F2D35A"/>
<stop offset="0.12" stop-color="#F9E76B"/>
<stop offset="0.16" stop-color="#FDF374"/>
<stop offset="0.2" stop-color="#FFF778"/>
<stop offset="0.28" stop-color="#E9C24A"/>
<stop offset="0.34" stop-color="#D99A26"/>
<stop offset="0.36" stop-color="#CA8E23"/>
<stop offset="0.4" stop-color="#B67D20"/>
<stop offset="0.43" stop-color="#AA741E"/>
<stop offset="0.47" stop-color="#A7711E"/>
<stop offset="0.51" stop-color="#AB7622"/>
<stop offset="0.56" stop-color="#B8852E"/>
<stop offset="0.61" stop-color="#CD9E42"/>
<stop offset="0.66" stop-color="#EAC05E"/>
<stop offset="0.68" stop-color="#F6CE69"/>
<stop offset="0.72" stop-color="#F3C862"/>
<stop offset="0.78" stop-color="#EABA4F"/>
<stop offset="0.85" stop-color="#DDA230"/>
<stop offset="0.87" stop-color="#D99A26"/>
<stop offset="1" stop-color="#F6CE69"/>
</linearGradient>
</defs>
</svg>
