<svg width="20" height="20" viewBox="0 0 20 20" fill="none" xmlns="http://www.w3.org/2000/svg">
<path d="M7.11589 9.91366L9.09627 11.894L13.057 7.93328M10.0865 1.00195C12.3994 3.04826 15.4181 4.11369 18.5031 3.97252C18.9522 5.5004 19.0897 7.10298 18.9072 8.68502C18.7248 10.2671 18.2262 11.7963 17.441 13.1818C16.6559 14.5673 15.6002 15.7809 14.3368 16.7504C13.0734 17.7199 11.628 18.4255 10.0865 18.8254C8.54496 18.4255 7.09955 17.7199 5.83613 16.7504C4.57271 15.7809 3.51707 14.5673 2.73193 13.1818C1.9468 11.7963 1.44819 10.2671 1.26574 8.68502C1.08329 7.10298 1.22072 5.5004 1.66986 3.97252C4.75483 4.11369 7.77356 3.04826 10.0865 1.00195Z" stroke="#E79925" stroke-width="2" stroke-linecap="round" stroke-linejoin="round"/>
</svg>
